<svg width="24" height="24" viewBox="0 0 24 24" fill="none" xmlns="http://www.w3.org/2000/svg">
<path d="M13.1999 13.8V17.4C13.1999 17.5591 13.2631 17.7117 13.3756 17.8243C13.4882 17.9368 13.6408 18 13.7999 18H17.3999C17.559 18 17.7116 17.9368 17.8242 17.8243C17.9367 17.7117 17.9999 17.5591 17.9999 17.4V13.8C17.9999 13.6409 17.9367 13.4883 17.8242 13.3757C17.7116 13.2632 17.559 13.2 17.3999 13.2H13.7999C13.6408 13.2 13.4882 13.2632 13.3756 13.3757C13.2631 13.4883 13.1999 13.6409 13.1999 13.8ZM14.3999 16.8V14.4H16.7999V16.8H14.3999ZM5.9999 2.4C5.91196 2.40003 5.8251 2.4194 5.74547 2.45673C5.66584 2.49405 5.59539 2.54843 5.5391 2.616L2.5391 6.216C2.44922 6.32378 2.39997 6.45966 2.3999 6.6V8.4C2.3999 9.4656 2.8631 10.4244 3.5999 11.0832V21C3.5999 21.1591 3.66312 21.3117 3.77564 21.4243C3.88816 21.5368 4.04077 21.6 4.1999 21.6H19.7999C19.959 21.6 20.1116 21.5368 20.2242 21.4243C20.3367 21.3117 20.3999 21.1591 20.3999 21V11.0832C21.1367 10.4232 21.5999 9.4656 21.5999 8.4V6.5784C21.5999 6.4704 21.5999 6.384 21.4607 6.216L18.4607 2.616C18.4044 2.54843 18.334 2.49405 18.2543 2.45673C18.1747 2.4194 18.0878 2.40003 17.9999 2.4H5.9999ZM5.9999 10.8C5.36338 10.8 4.75293 10.5471 4.30285 10.0971C3.85276 9.64697 3.5999 9.03652 3.5999 8.4V7.2H8.3999V8.4C8.3999 9.03652 8.14705 9.64697 7.69696 10.0971C7.24687 10.5471 6.63642 10.8 5.9999 10.8ZM11.9999 10.8C11.3634 10.8 10.7529 10.5471 10.3028 10.0971C9.85276 9.64697 9.5999 9.03652 9.5999 8.4V7.2H14.3999V8.4C14.3999 9.03652 14.147 9.64697 13.697 10.0971C13.2469 10.5471 12.6364 10.8 11.9999 10.8ZM17.9999 10.8C17.3634 10.8 16.7529 10.5471 16.3028 10.0971C15.8528 9.64697 15.5999 9.03652 15.5999 8.4V7.2H20.3999V8.4C20.3999 9.03652 20.147 9.64697 19.697 10.0971C19.2469 10.5471 18.6364 10.8 17.9999 10.8ZM5.9999 20.4H4.7999V11.796C5.55626 12.0641 6.38056 12.0715 7.14163 11.8171C7.9027 11.5627 8.55682 11.0611 8.9999 10.392C9.32829 10.8869 9.77414 11.2928 10.2976 11.5734C10.8211 11.854 11.406 12.0005 11.9999 12C12.594 12.0004 13.1789 11.8537 13.7024 11.5729C14.2259 11.292 14.6717 10.8859 14.9999 10.3908C15.443 11.0599 16.0971 11.5615 16.8582 11.8159C17.6192 12.0703 18.4435 12.0629 19.1999 11.7948V20.4H11.9999V13.8C11.9999 13.6409 11.9367 13.4883 11.8242 13.3757C11.7116 13.2632 11.559 13.2 11.3999 13.2H6.5999C6.44077 13.2 6.28816 13.2632 6.17564 13.3757C6.06312 13.4883 5.9999 13.6409 5.9999 13.8V20.4ZM8.5679 6H4.2815L6.2807 3.6H9.3671L8.5679 6ZM14.1671 6H9.8327L10.6319 3.6H13.3679L14.1671 6ZM15.4319 6L14.6327 3.6H17.7191L19.7195 6H15.4319ZM7.1999 20.4V14.4H10.7999V20.4H7.1999Z" fill="#666666"/>
</svg>
