<svg width="24" height="24" viewBox="0 0 24 24" fill="#E57904" xmlns="http://www.w3.org/2000/svg">
<path d="M6.49577 0.3291C6.86625 0.143858 7.31676 0.294026 7.502 0.66451L7.55478 0.770082C7.94188 1.54428 7.94188 2.45556 7.55478 3.22976L7.502 3.33533C7.31676 3.70581 6.86625 3.85598 6.49577 3.67074C6.12528 3.4855 5.97511 3.03499 6.16036 2.66451L6.21314 2.55894C6.3891 2.20703 6.3891 1.79281 6.21314 1.4409L6.16036 1.33533C5.97512 0.964846 6.12528 0.514342 6.49577 0.3291Z" fill="#E57904"/>
<path d="M14.4958 0.329099C14.8663 0.143858 15.3168 0.294027 15.502 0.664511L15.5548 0.770084C15.9419 1.54428 15.9419 2.45556 15.5548 3.22976L15.502 3.33533C15.3168 3.70582 14.8662 3.85598 14.4958 3.67074C14.1253 3.48549 13.9751 3.03499 14.1604 2.66451L14.2131 2.55894C14.3891 2.20703 14.3891 1.79281 14.2131 1.4409L14.1604 1.33533C13.9751 0.964845 14.1253 0.51434 14.4958 0.329099Z" fill="#E57904"/>
<path d="M11.1666 0.3291C11.5371 0.514343 11.6872 0.964848 11.502 1.33533L11.4492 1.4409C11.2733 1.79281 11.2733 2.20703 11.4492 2.55894L11.502 2.66451C11.6872 3.03499 11.5371 3.4855 11.1666 3.67074C10.7961 3.85598 10.3456 3.70581 10.1604 3.33533L10.1076 3.22976C9.72047 2.45556 9.72047 1.54428 10.1076 0.770083L10.1604 0.664509C10.3456 0.294025 10.7961 0.143858 11.1666 0.3291Z" fill="#E57904"/>
<path fill-rule="evenodd" clip-rule="evenodd" d="M11.0015 4.2499C12.7555 4.24963 13.8214 4.24947 14.6746 4.52134C16.7731 5.19004 18.3053 6.99869 18.6199 9.17858C18.6719 9.53878 18.6739 9.91524 18.6418 10.3378C20.3232 10.7083 21.5812 12.2072 21.5812 13.9999C21.5812 16.071 19.9022 17.7499 17.8312 17.7499C17.7093 17.7499 17.5886 17.7441 17.4694 17.7326L17.3828 18.252C17.274 18.9056 17.2074 19.3049 17.1022 19.6551C16.4484 21.83 14.5757 23.4165 12.3229 23.7037C11.9601 23.75 11.5554 23.75 10.8929 23.7499H10.7696C10.1071 23.75 9.70221 23.75 9.33948 23.7037C7.08662 23.4165 5.21392 21.83 4.56018 19.6551C4.45491 19.3048 4.38839 18.9056 4.2795 18.252L3.37856 12.8464C3.08993 11.1163 2.91453 10.0649 3.04244 9.17858C3.35705 6.99869 4.88921 5.19004 6.98772 4.52134C7.29934 4.42204 7.6301 4.36051 7.99939 4.32161V8.99992H7.74939C7.19711 8.99992 6.74939 9.44764 6.74939 9.99992V11.9999C6.74939 12.5522 7.19711 12.9999 7.74939 12.9999H9.74939C10.3017 12.9999 10.7494 12.5522 10.7494 11.9999V9.99992C10.7494 9.44764 10.3017 8.99992 9.74939 8.99992H9.49939L9.49939 4.25423C9.88748 4.24992 10.324 4.24992 10.8176 4.24992L11.0015 4.2499ZM17.717 16.2471C17.7548 16.249 17.7929 16.2499 17.8312 16.2499C19.0738 16.2499 20.0812 15.2426 20.0812 13.9999C20.0812 12.9716 19.3913 12.1044 18.4492 11.8359C18.394 12.1848 18.3296 12.5717 18.2577 13.003L17.717 16.2471Z" fill="#E57904"/>
</svg>
