<svg width="24" height="24" viewBox="0 0 24 24" fill="none" xmlns="http://www.w3.org/2000/svg">
<path d="M10.4949 14.501V21.999H7.49989V14.501H10.4949ZM17.2549 13.001H13.7539C13.555 13.001 13.3642 13.08 13.2236 13.2207C13.0829 13.3613 13.0039 13.5521 13.0039 13.751V17.253C13.0039 17.667 13.3389 18.003 13.7539 18.003H17.2549C17.4538 18.003 17.6446 17.924 17.7852 17.7833C17.9259 17.6427 18.0049 17.4519 18.0049 17.253V13.751C18.0049 13.5521 17.9259 13.3613 17.7852 13.2207C17.6446 13.08 17.4538 13.001 17.2549 13.001ZM16.5049 14.501V16.503H14.5029V14.501H16.5039H16.5049ZM8.16489 7.002H3.50089V8.167C3.50089 9.347 4.37889 10.324 5.51789 10.478L5.67389 10.494L5.83389 10.499C6.42492 10.4991 6.99395 10.2748 7.42592 9.87141C7.8579 9.46802 8.12059 8.91566 8.16089 8.326L8.16689 8.166V7.003L8.16489 7.002ZM14.3299 7.002H9.66589V8.167C9.66589 9.347 10.5439 10.324 11.6829 10.478L11.8389 10.494L11.9989 10.499C12.5899 10.4991 13.1589 10.2748 13.5909 9.87141C14.0229 9.46802 14.2856 8.91566 14.3259 8.326L14.3319 8.166V7.003L14.3299 7.002ZM20.4969 7.002H15.8319L15.8329 8.167C15.8329 9.347 16.7109 10.324 17.8489 10.478L18.0059 10.494L18.1659 10.499C18.7569 10.4989 19.3257 10.2745 19.7577 9.87114C20.1896 9.4678 20.4524 8.91558 20.4929 8.326L20.4979 8.166V7.003L20.4969 7.002ZM9.06089 3.5H6.32589L4.46989 5.502H8.44689L9.06089 3.5ZM13.3689 3.5H10.6309L10.0149 5.502H13.9849L13.3689 3.5ZM17.6729 3.5H14.9399L15.5549 5.502H19.5309L17.6729 3.5ZM2.20189 5.742L5.44989 2.24C5.56728 2.11329 5.72482 2.03099 5.89589 2.007L5.99989 2H17.9999C18.173 1.99983 18.3408 2.05954 18.4749 2.169L18.5499 2.239L21.8229 5.769L21.8529 5.807C21.9549 5.943 22.0009 6.097 22.0009 6.247L21.9989 8.167C21.9989 9.161 21.6209 10.067 20.9989 10.747V21.25C20.9989 21.4312 20.9332 21.6063 20.8141 21.7429C20.695 21.8795 20.5304 21.9684 20.3509 21.993L20.2489 22L11.9959 21.999V13.751C11.9959 13.5521 11.9169 13.3613 11.7762 13.2207C11.6356 13.08 11.4448 13.001 11.2459 13.001H6.74989C6.55097 13.001 6.36021 13.08 6.21956 13.2207C6.0789 13.3613 5.99989 13.5521 5.99989 13.751V21.999L3.75189 22C3.57048 22.0002 3.39513 21.9347 3.25833 21.8156C3.12153 21.6964 3.03256 21.5317 3.00789 21.352L3.00189 21.25L2.99989 10.748C2.40129 10.0931 2.04947 9.25014 2.00489 8.364L1.99989 8.167V6.29C1.9912 6.14753 2.02458 6.00565 2.09589 5.882L2.14589 5.806L2.20089 5.741L2.20189 5.742Z" fill="#E57904"/>
</svg>
